<svg width="100" height="100" viewBox="0 0 100 100" xmlns="http://www.w3.org/2000/svg">
  <defs>
    <linearGradient id="grad1" x1="0%" y1="0%" x2="100%" y2="100%">
      <stop offset="0%" style="stop-color:#1e3a8a;stop-opacity:1" />
      <stop offset="100%" style="stop-color:#3b82f6;stop-opacity:1" />
    </linearGradient>
  </defs>

  <!-- Background circle -->
  <circle cx="50" cy="50" r="45" fill="url(#grad1)" stroke="#ffffff" stroke-width="2"/>

  <!-- Car silhouette -->
  <path d="M20 65 L20 55 L25 50 L30 45 L35 45 L40 50 L45 50 L50 45 L55 45 L60 50 L65 50 L70 45 L75 45 L80 50 L80 65 Z"
        fill="#ffffff" opacity="0.9"/>

  <!-- Wheels -->
  <circle cx="35" cy="70" r="8" fill="#333"/>
  <circle cx="65" cy="70" r="8" fill="#333"/>
  <circle cx="35" cy="70" r="4" fill="#666"/>
  <circle cx="65" cy="70" r="4" fill="#666"/>

  <!-- Windows -->
  <rect x="30" y="50" width="15" height="8" fill="#87ceeb" opacity="0.7"/>
  <rect x="55" y="50" width="15" height="8" fill="#87ceeb" opacity="0.7"/>

  <!-- Text -->
  <text x="50" y="85" text-anchor="middle" fill="#ffffff" font-family="Arial, sans-serif" font-size="8" font-weight="bold">BDS</text>
</svg>